<svg width="401" height="182" viewBox="0 0 401 182" fill="none" xmlns="http://www.w3.org/2000/svg">
<path d="M54.8009 161H70.5002H86.1991C87.7016 161 88.9902 162.111 88.9996 163.613C89.0454 170.988 85.5013 182 70.5002 182C55.4993 182 51.9548 170.988 52.0004 163.613C52.0097 162.111 53.2983 161 54.8009 161Z" fill="#090B5E"/>
<rect x="115" y="125" width="13.6068" height="34.7113" rx="6.80342" fill="#090B5E"/>
<rect x="13" y="125" width="13.6068" height="34.7113" rx="6.80342" fill="#090B5E"/>
<path d="M31 131.656C31 127.543 34.5292 124.317 38.6257 124.684L58.2275 126.443C66.0608 127.146 73.9407 127.164 81.777 126.495L103.405 124.648C107.491 124.3 111 127.522 111 131.623V150C111 153.866 107.866 157 104 157H38C34.134 157 31 153.866 31 150V131.656Z" fill="#090B5E"/>
<circle cx="50.095" cy="76.9719" r="13.8845" fill="#090B5E"/>
<circle cx="93.6926" cy="76.9719" r="13.8845" fill="#090B5E"/>
<path fill-rule="evenodd" clip-rule="evenodd" d="M74 19.5422C78.0571 18.2679 81 14.4776 81 10C81 4.47715 76.5229 0 71 0C65.4771 0 61 4.47715 61 10C61 14.4776 63.9429 18.2679 68 19.5422V27.0485C31.0919 28.2544 17.9481 51.649 16 63.5C10.6667 60.8333 0 59.6 0 76C0 92.4 10 92.1667 15 90C19.8 120.4 52 121.5 71 121.5C90 121.5 122.2 120.4 127 90C132 92.1667 142 92.4 142 76C142 59.6 131.333 60.8333 126 63.5C124.052 51.649 110.908 28.2544 74 27.0485V19.5422ZM42 53C32.6112 53 25 60.6112 25 70V87C25 96.3888 32.6112 104 42 104H100C109.389 104 117 96.3888 117 87V70C117 60.6112 109.389 53 100 53H42Z" fill="#090B5E"/>
<path d="M161.08 83C160.611 83 160.227 82.8507 159.928 82.552C159.629 82.2533 159.48 81.8693 159.48 81.4V39.8C159.48 39.3307 159.629 38.9467 159.928 38.648C160.227 38.3493 160.611 38.2 161.08 38.2H169.336C169.805 38.2 170.189 38.3493 170.488 38.648C170.787 38.9467 170.936 39.3307 170.936 39.8V55.224H186.744V39.8C186.744 39.3307 186.893 38.9467 187.192 38.648C187.491 38.3493 187.875 38.2 188.344 38.2H196.6C197.069 38.2 197.453 38.3493 197.752 38.648C198.051 38.9467 198.2 39.3307 198.2 39.8V81.4C198.2 81.8693 198.051 82.2533 197.752 82.552C197.453 82.8507 197.069 83 196.6 83H188.344C187.875 83 187.491 82.8507 187.192 82.552C186.893 82.2533 186.744 81.8693 186.744 81.4V65.464H170.936V81.4C170.936 81.8693 170.787 82.2533 170.488 82.552C170.189 82.8507 169.805 83 169.336 83H161.08ZM208.064 83C207.594 83 207.21 82.8507 206.911 82.552C206.613 82.2533 206.464 81.8693 206.464 81.4V51.32C206.464 50.8507 206.613 50.4667 206.911 50.168C207.21 49.8693 207.594 49.72 208.064 49.72H215.616C216.042 49.72 216.405 49.8693 216.704 50.168C217.045 50.4667 217.216 50.8507 217.216 51.32V81.4C217.216 81.8693 217.045 82.2533 216.704 82.552C216.405 82.8507 216.042 83 215.616 83H208.064ZM208 44.92C207.53 44.92 207.146 44.7707 206.848 44.472C206.549 44.1733 206.4 43.7893 206.4 43.32V37.624C206.4 37.1547 206.549 36.7707 206.848 36.472C207.146 36.1307 207.53 35.96 208 35.96H215.616C216.085 35.96 216.469 36.1307 216.768 36.472C217.109 36.7707 217.28 37.1547 217.28 37.624V43.32C217.28 43.7893 217.109 44.1733 216.768 44.472C216.469 44.7707 216.085 44.92 215.616 44.92H208ZM241.034 97.08C237.748 97.08 235.018 96.6533 232.842 95.8C230.708 94.9467 229.002 93.9227 227.722 92.728C226.484 91.5333 225.588 90.3387 225.034 89.144C224.479 87.992 224.18 87.0747 224.138 86.392C224.095 85.9227 224.244 85.5387 224.586 85.24C224.927 84.9413 225.332 84.792 225.802 84.792H233.93C234.314 84.792 234.634 84.8773 234.89 85.048C235.188 85.2613 235.423 85.6027 235.594 86.072C235.807 86.5413 236.084 87.032 236.426 87.544C236.81 88.056 237.322 88.4613 237.962 88.76C238.644 89.1013 239.562 89.272 240.714 89.272C241.994 89.272 243.06 89.0587 243.914 88.632C244.767 88.248 245.407 87.5867 245.834 86.648C246.26 85.752 246.474 84.536 246.474 83V78.712C245.492 79.7787 244.234 80.6533 242.698 81.336C241.162 81.976 239.306 82.296 237.13 82.296C234.954 82.296 233.034 81.976 231.37 81.336C229.706 80.696 228.319 79.736 227.21 78.456C226.1 77.176 225.226 75.6187 224.586 73.784C223.988 71.9493 223.626 69.8373 223.498 67.448C223.455 66.3387 223.455 65.2293 223.498 64.12C223.626 61.816 223.988 59.7467 224.586 57.912C225.183 56.0773 226.036 54.4987 227.146 53.176C228.298 51.8533 229.706 50.8507 231.37 50.168C233.034 49.4427 234.954 49.08 237.13 49.08C239.434 49.08 241.396 49.528 243.018 50.424C244.682 51.2773 246.047 52.3653 247.114 53.688V51.32C247.114 50.8933 247.263 50.5307 247.562 50.232C247.86 49.8907 248.244 49.72 248.714 49.72H256.074C256.543 49.72 256.927 49.8907 257.226 50.232C257.567 50.5307 257.738 50.8933 257.738 51.32V82.104C257.738 85.3467 257.076 88.0773 255.754 90.296C254.431 92.5147 252.532 94.2 250.058 95.352C247.583 96.504 244.575 97.08 241.034 97.08ZM240.586 73.976C241.951 73.976 243.06 73.6773 243.914 73.08C244.767 72.4827 245.386 71.7147 245.77 70.776C246.196 69.8373 246.431 68.8347 246.474 67.768C246.516 67.2987 246.538 66.6373 246.538 65.784C246.538 64.9307 246.516 64.2907 246.474 63.864C246.431 62.7547 246.196 61.7307 245.77 60.792C245.386 59.8533 244.767 59.1067 243.914 58.552C243.06 57.9547 241.951 57.656 240.586 57.656C239.178 57.656 238.047 57.9547 237.194 58.552C236.383 59.1493 235.786 59.96 235.402 60.984C235.06 62.008 234.847 63.1387 234.762 64.376C234.719 65.3147 234.719 66.2747 234.762 67.256C234.847 68.4933 235.06 69.624 235.402 70.648C235.786 71.672 236.383 72.4827 237.194 73.08C238.047 73.6773 239.178 73.976 240.586 73.976ZM266.876 83C266.407 83 266.023 82.8507 265.724 82.552C265.425 82.2533 265.276 81.8693 265.276 81.4V39.16C265.276 38.6907 265.425 38.3067 265.724 38.008C266.023 37.7093 266.407 37.56 266.876 37.56H275.068C275.537 37.56 275.921 37.7093 276.22 38.008C276.519 38.3067 276.668 38.6907 276.668 39.16V53.432C277.82 52.1093 279.228 51.064 280.892 50.296C282.599 49.4853 284.561 49.08 286.78 49.08C289.255 49.08 291.452 49.6347 293.372 50.744C295.335 51.8533 296.871 53.496 297.98 55.672C299.089 57.8053 299.644 60.4293 299.644 63.544V81.4C299.644 81.8693 299.495 82.2533 299.196 82.552C298.897 82.8507 298.513 83 298.044 83H289.788C289.361 83 288.977 82.8507 288.636 82.552C288.337 82.2533 288.188 81.8693 288.188 81.4V63.928C288.188 61.9227 287.697 60.3867 286.716 59.32C285.777 58.2107 284.369 57.656 282.492 57.656C280.743 57.656 279.335 58.2107 278.268 59.32C277.201 60.3867 276.668 61.9227 276.668 63.928V81.4C276.668 81.8693 276.519 82.2533 276.22 82.552C275.921 82.8507 275.537 83 275.068 83H266.876ZM322.261 83.64C317.226 83.64 313.216 82.2747 310.229 79.544C307.242 76.8133 305.685 72.76 305.557 67.384C305.557 67.0853 305.557 66.7013 305.557 66.232C305.557 65.7627 305.557 65.4 305.557 65.144C305.685 61.7733 306.432 58.8933 307.797 56.504C309.205 54.072 311.125 52.2373 313.557 51C316.032 49.72 318.912 49.08 322.197 49.08C325.952 49.08 329.045 49.8267 331.477 51.32C333.952 52.8133 335.808 54.84 337.045 57.4C338.282 59.96 338.901 62.8827 338.901 66.168V67.704C338.901 68.1733 338.73 68.5573 338.389 68.856C338.09 69.1547 337.728 69.304 337.301 69.304H316.821C316.821 69.3467 316.821 69.4107 316.821 69.496C316.821 69.5813 316.821 69.6667 316.821 69.752C316.864 70.9893 317.077 72.12 317.461 73.144C317.845 74.168 318.442 74.9787 319.253 75.576C320.064 76.1733 321.045 76.472 322.197 76.472C323.05 76.472 323.754 76.344 324.309 76.088C324.906 75.7893 325.397 75.4693 325.781 75.128C326.165 74.744 326.464 74.424 326.677 74.168C327.061 73.7413 327.36 73.4853 327.573 73.4C327.829 73.272 328.213 73.208 328.725 73.208H336.661C337.088 73.208 337.429 73.336 337.685 73.592C337.984 73.8053 338.112 74.1253 338.069 74.552C338.026 75.2773 337.664 76.152 336.981 77.176C336.298 78.2 335.296 79.224 333.973 80.248C332.693 81.2293 331.072 82.04 329.109 82.68C327.146 83.32 324.864 83.64 322.261 83.64ZM316.821 62.968H327.637V62.84C327.637 61.4747 327.424 60.28 326.997 59.256C326.613 58.232 325.994 57.4427 325.141 56.888C324.33 56.3333 323.349 56.056 322.197 56.056C321.045 56.056 320.064 56.3333 319.253 56.888C318.485 57.4427 317.888 58.232 317.461 59.256C317.034 60.28 316.821 61.4747 316.821 62.84V62.968ZM346.501 83C346.032 83 345.648 82.8507 345.349 82.552C345.05 82.2533 344.901 81.8693 344.901 81.4V51.32C344.901 50.8933 345.05 50.5307 345.349 50.232C345.648 49.8907 346.032 49.72 346.501 49.72H353.861C354.33 49.72 354.714 49.8907 355.013 50.232C355.312 50.5307 355.461 50.8933 355.461 51.32V53.88C356.613 52.5573 357.978 51.5333 359.557 50.808C361.178 50.0827 362.992 49.72 364.997 49.72H367.813C368.24 49.72 368.602 49.8693 368.901 50.168C369.242 50.4667 369.413 50.8507 369.413 51.32V57.912C369.413 58.3387 369.242 58.7227 368.901 59.064C368.602 59.3627 368.24 59.512 367.813 59.512H361.605C359.856 59.512 358.49 60.0027 357.509 60.984C356.57 61.9227 356.101 63.2667 356.101 65.016V81.4C356.101 81.8693 355.93 82.2533 355.589 82.552C355.29 82.8507 354.906 83 354.437 83H346.501ZM161.08 143C160.611 143 160.227 142.851 159.928 142.552C159.629 142.253 159.48 141.869 159.48 141.4V99.8C159.48 99.3307 159.629 98.9467 159.928 98.648C160.227 98.3493 160.611 98.2 161.08 98.2H169.528C169.955 98.2 170.317 98.3493 170.616 98.648C170.957 98.9467 171.128 99.3307 171.128 99.8V133.336H190.456C190.925 133.336 191.309 133.507 191.608 133.848C191.949 134.147 192.12 134.531 192.12 135V141.4C192.12 141.869 191.949 142.253 191.608 142.552C191.309 142.851 190.925 143 190.456 143H161.08ZM212.011 143.64C206.976 143.64 202.966 142.275 199.979 139.544C196.992 136.813 195.435 132.76 195.307 127.384C195.307 127.085 195.307 126.701 195.307 126.232C195.307 125.763 195.307 125.4 195.307 125.144C195.435 121.773 196.182 118.893 197.547 116.504C198.955 114.072 200.875 112.237 203.307 111C205.782 109.72 208.662 109.08 211.947 109.08C215.702 109.08 218.795 109.827 221.227 111.32C223.702 112.813 225.558 114.84 226.795 117.4C228.032 119.96 228.651 122.883 228.651 126.168V127.704C228.651 128.173 228.48 128.557 228.139 128.856C227.84 129.155 227.478 129.304 227.051 129.304H206.571C206.571 129.347 206.571 129.411 206.571 129.496C206.571 129.581 206.571 129.667 206.571 129.752C206.614 130.989 206.827 132.12 207.211 133.144C207.595 134.168 208.192 134.979 209.003 135.576C209.814 136.173 210.795 136.472 211.947 136.472C212.8 136.472 213.504 136.344 214.059 136.088C214.656 135.789 215.147 135.469 215.531 135.128C215.915 134.744 216.214 134.424 216.427 134.168C216.811 133.741 217.11 133.485 217.323 133.4C217.579 133.272 217.963 133.208 218.475 133.208H226.411C226.838 133.208 227.179 133.336 227.435 133.592C227.734 133.805 227.862 134.125 227.819 134.552C227.776 135.277 227.414 136.152 226.731 137.176C226.048 138.2 225.046 139.224 223.723 140.248C222.443 141.229 220.822 142.04 218.859 142.68C216.896 143.32 214.614 143.64 212.011 143.64ZM206.571 122.968H217.387V122.84C217.387 121.475 217.174 120.28 216.747 119.256C216.363 118.232 215.744 117.443 214.891 116.888C214.08 116.333 213.099 116.056 211.947 116.056C210.795 116.056 209.814 116.333 209.003 116.888C208.235 117.443 207.638 118.232 207.211 119.256C206.784 120.28 206.571 121.475 206.571 122.84V122.968ZM245.241 143C244.601 143 244.132 142.851 243.833 142.552C243.534 142.211 243.278 141.827 243.065 141.4L230.969 111.704C230.884 111.533 230.841 111.341 230.841 111.128C230.841 110.744 230.969 110.424 231.225 110.168C231.524 109.869 231.886 109.72 232.313 109.72H239.545C240.1 109.72 240.526 109.869 240.825 110.168C241.124 110.467 241.316 110.765 241.401 111.064L248.633 130.712L255.929 111.064C256.014 110.765 256.206 110.467 256.505 110.168C256.804 109.869 257.23 109.72 257.785 109.72H265.017C265.401 109.72 265.742 109.869 266.041 110.168C266.34 110.424 266.489 110.744 266.489 111.128C266.489 111.341 266.446 111.533 266.361 111.704L254.265 141.4C254.094 141.827 253.838 142.211 253.497 142.552C253.198 142.851 252.708 143 252.025 143H245.241ZM285.574 143.64C280.539 143.64 276.528 142.275 273.542 139.544C270.555 136.813 268.998 132.76 268.87 127.384C268.87 127.085 268.87 126.701 268.87 126.232C268.87 125.763 268.87 125.4 268.87 125.144C268.998 121.773 269.744 118.893 271.11 116.504C272.518 114.072 274.438 112.237 276.87 111C279.344 109.72 282.224 109.08 285.51 109.08C289.264 109.08 292.358 109.827 294.79 111.32C297.264 112.813 299.12 114.84 300.358 117.4C301.595 119.96 302.214 122.883 302.214 126.168V127.704C302.214 128.173 302.043 128.557 301.701 128.856C301.403 129.155 301.04 129.304 300.614 129.304H280.134C280.134 129.347 280.134 129.411 280.134 129.496C280.134 129.581 280.134 129.667 280.134 129.752C280.176 130.989 280.39 132.12 280.774 133.144C281.158 134.168 281.755 134.979 282.566 135.576C283.376 136.173 284.358 136.472 285.51 136.472C286.363 136.472 287.067 136.344 287.622 136.088C288.219 135.789 288.71 135.469 289.094 135.128C289.478 134.744 289.776 134.424 289.99 134.168C290.374 133.741 290.672 133.485 290.886 133.4C291.142 133.272 291.526 133.208 292.038 133.208H299.974C300.4 133.208 300.742 133.336 300.998 133.592C301.296 133.805 301.424 134.125 301.382 134.552C301.339 135.277 300.976 136.152 300.294 137.176C299.611 138.2 298.608 139.224 297.286 140.248C296.006 141.229 294.384 142.04 292.422 142.68C290.459 143.32 288.176 143.64 285.574 143.64ZM280.134 122.968H290.95V122.84C290.95 121.475 290.736 120.28 290.31 119.256C289.926 118.232 289.307 117.443 288.454 116.888C287.643 116.333 286.662 116.056 285.51 116.056C284.358 116.056 283.376 116.333 282.566 116.888C281.798 117.443 281.2 118.232 280.774 119.256C280.347 120.28 280.134 121.475 280.134 122.84V122.968ZM309.814 143C309.344 143 308.96 142.851 308.661 142.552C308.363 142.253 308.214 141.869 308.214 141.4V99.16C308.214 98.6907 308.363 98.3067 308.661 98.008C308.96 97.7093 309.344 97.56 309.814 97.56H317.366C317.835 97.56 318.219 97.7093 318.518 98.008C318.816 98.3067 318.966 98.6907 318.966 99.16V141.4C318.966 141.869 318.816 142.253 318.518 142.552C318.219 142.851 317.835 143 317.366 143H309.814ZM327.806 143C327.337 143 326.953 142.851 326.654 142.552C326.355 142.253 326.206 141.869 326.206 141.4V133.272C326.206 132.845 326.355 132.483 326.654 132.184C326.953 131.843 327.337 131.672 327.806 131.672H335.87C336.339 131.672 336.723 131.843 337.022 132.184C337.363 132.483 337.534 132.845 337.534 133.272V141.4C337.534 141.869 337.363 142.253 337.022 142.552C336.723 142.851 336.339 143 335.87 143H327.806ZM350.622 143.36C349.23 143.36 348.042 143.108 347.058 142.604C346.098 142.1 345.318 141.428 344.718 140.588C344.118 139.748 343.674 138.812 343.386 137.78C343.122 136.748 342.966 135.704 342.918 134.648C342.894 134.288 342.882 133.952 342.882 133.64C342.882 133.328 342.894 132.992 342.918 132.632C342.966 131.576 343.122 130.532 343.386 129.5C343.674 128.468 344.118 127.532 344.718 126.692C345.318 125.852 346.098 125.18 347.058 124.676C348.042 124.172 349.23 123.92 350.622 123.92C352.11 123.92 353.334 124.196 354.294 124.748C355.278 125.3 356.07 125.972 356.67 126.764V118.232C356.67 117.992 356.742 117.8 356.886 117.656C357.03 117.512 357.222 117.44 357.462 117.44H358.074C358.314 117.44 358.506 117.512 358.65 117.656C358.794 117.8 358.866 117.992 358.866 118.232V142.208C358.866 142.448 358.794 142.64 358.65 142.784C358.506 142.928 358.314 143 358.074 143H357.462C357.222 143 357.03 142.928 356.886 142.784C356.742 142.64 356.67 142.448 356.67 142.208V140.516C356.07 141.332 355.278 142.016 354.294 142.568C353.334 143.096 352.11 143.36 350.622 143.36ZM350.838 141.272C352.206 141.272 353.31 140.948 354.15 140.3C354.99 139.652 355.614 138.848 356.022 137.888C356.43 136.904 356.646 135.92 356.67 134.936C356.694 134.576 356.706 134.108 356.706 133.532C356.706 132.956 356.694 132.488 356.67 132.128C356.646 131.168 356.418 130.22 355.986 129.284C355.578 128.348 354.954 127.568 354.114 126.944C353.274 126.32 352.182 126.008 350.838 126.008C349.446 126.008 348.33 126.32 347.49 126.944C346.674 127.568 346.086 128.384 345.726 129.392C345.366 130.4 345.162 131.48 345.114 132.632C345.09 133.304 345.09 133.976 345.114 134.648C345.162 135.8 345.366 136.88 345.726 137.888C346.086 138.896 346.674 139.712 347.49 140.336C348.33 140.96 349.446 141.272 350.838 141.272ZM371.684 143.36C369.356 143.36 367.508 142.604 366.14 141.092C364.772 139.556 363.992 137.552 363.8 135.08C363.776 134.72 363.764 134.24 363.764 133.64C363.764 133.04 363.776 132.56 363.8 132.2C363.92 130.568 364.304 129.128 364.952 127.88C365.6 126.632 366.488 125.66 367.616 124.964C368.768 124.268 370.124 123.92 371.684 123.92C373.364 123.92 374.792 124.292 375.968 125.036C377.144 125.78 378.044 126.848 378.668 128.24C379.316 129.632 379.64 131.288 379.64 133.208V133.748C379.64 133.988 379.556 134.18 379.388 134.324C379.244 134.468 379.052 134.54 378.812 134.54H365.996C365.996 134.54 365.996 134.588 365.996 134.684C365.996 134.78 365.996 134.852 365.996 134.9C366.044 135.98 366.296 137.012 366.752 137.996C367.208 138.956 367.856 139.748 368.696 140.372C369.536 140.972 370.532 141.272 371.684 141.272C372.716 141.272 373.568 141.116 374.24 140.804C374.936 140.492 375.488 140.156 375.896 139.796C376.304 139.412 376.568 139.124 376.688 138.932C376.904 138.62 377.072 138.44 377.192 138.392C377.312 138.32 377.504 138.284 377.768 138.284H378.344C378.56 138.284 378.74 138.356 378.884 138.5C379.052 138.62 379.124 138.788 379.1 139.004C379.076 139.34 378.884 139.76 378.524 140.264C378.188 140.744 377.696 141.224 377.048 141.704C376.424 142.184 375.656 142.58 374.744 142.892C373.832 143.204 372.812 143.36 371.684 143.36ZM365.996 132.524H377.444V132.38C377.444 131.18 377.216 130.1 376.76 129.14C376.304 128.18 375.644 127.424 374.78 126.872C373.916 126.296 372.884 126.008 371.684 126.008C370.484 126.008 369.452 126.296 368.588 126.872C367.748 127.424 367.1 128.18 366.644 129.14C366.212 130.1 365.996 131.18 365.996 132.38V132.524ZM390.235 143C389.851 143 389.551 142.916 389.335 142.748C389.143 142.58 388.987 142.364 388.867 142.1L382.243 125.396C382.195 125.252 382.171 125.12 382.171 125C382.171 124.808 382.243 124.64 382.387 124.496C382.531 124.352 382.699 124.28 382.891 124.28H383.647C383.887 124.28 384.067 124.352 384.187 124.496C384.331 124.616 384.415 124.724 384.439 124.82L390.523 140.372L396.607 124.82C396.655 124.724 396.739 124.616 396.859 124.496C396.979 124.352 397.159 124.28 397.399 124.28H398.155C398.347 124.28 398.515 124.352 398.659 124.496C398.803 124.64 398.875 124.808 398.875 125C398.875 125.12 398.851 125.252 398.803 125.396L392.179 142.1C392.083 142.364 391.927 142.58 391.711 142.748C391.495 142.916 391.195 143 390.811 143H390.235Z" fill="#090B5E"/>
</svg>
